<?xml version="1.0" encoding="utf-8"?>
<!-- Svg Vector Icons : http://www.onlinewebfonts.com/icon -->
<!DOCTYPE svg PUBLIC "-//W3C//DTD SVG 1.1//EN" "http://www.w3.org/Graphics/SVG/1.1/DTD/svg11.dtd">
<svg version="1.1" xmlns="http://www.w3.org/2000/svg" xmlns:xlink="http://www.w3.org/1999/xlink" x="0px" y="0px" viewBox="0 0 1000 1000" enable-background="new 0 0 1000 1000" xml:space="preserve">
<metadata> Svg Vector Icons : http://www.onlinewebfonts.com/icon </metadata>
<g><path d="M500,10L500,10c18.4,0,30.6,12.3,30.6,30.6v128.6c0,18.4-12.3,30.6-30.6,30.6l0,0c-18.4,0-30.6-12.3-30.6-30.6V40.6C469.4,22.3,481.6,10,500,10L500,10L500,10z M500,800.1L500,800.1c18.4,0,30.6,12.3,30.6,30.6v128.6c0,18.4-12.3,30.6-30.6,30.6l0,0c-18.4,0-30.6-12.3-30.6-30.6V830.8C469.4,812.4,481.6,800.1,500,800.1L500,800.1L500,800.1z M990,500L990,500c0,18.4-12.3,30.6-30.6,30.6H830.8c-18.4,0-30.6-12.3-30.6-30.6l0,0c0-18.4,12.3-30.6,30.6-30.6h128.6C977.8,469.4,990,481.6,990,500L990,500L990,500z M199.9,500L199.9,500c0,18.4-12.3,30.6-30.6,30.6H40.6C22.3,530.6,10,518.4,10,500l0,0c0-18.4,12.3-30.6,30.6-30.6h128.6C187.6,469.4,199.9,481.6,199.9,500L199.9,500L199.9,500z M922.6,255L922.6,255c6.1,12.3,6.1,30.6-12.3,42.9l-110.3,67.4c-12.3,6.1-30.6,6.1-42.9-12.3l0,0c-6.1-12.3-6.1-30.6,12.3-42.9l110.3-67.4C898.1,236.6,916.5,236.6,922.6,255L922.6,255L922.6,255z M242.8,647L242.8,647c6.1,12.3,6.1,30.6-12.3,42.9l-110.3,67.4c-12.3,6.1-30.6,6.1-42.9-12.3l0,0c-6.1-12.3-6.1-30.6,12.3-42.9l110.3-67.4C212.1,628.6,230.5,634.8,242.8,647L242.8,647L242.8,647z M745,77.4L745,77.4c12.3,6.1,18.4,24.5,12.3,42.9l-67.4,110.3c-6.1,12.3-24.5,18.4-42.9,12.3l0,0c-12.3-6.1-18.4-24.5-12.3-42.9l67.4-110.3C714.4,71.3,732.8,65.1,745,77.4L745,77.4L745,77.4z M353,757.3L353,757.3c12.2,6.1,18.4,24.5,12.2,42.9l-67.4,110.3c-12.3,18.4-30.6,18.4-42.9,12.3l0,0c-12.3-6.1-18.4-24.5-12.3-42.9l67.4-110.3C316.3,751.1,334.6,751.1,353,757.3L353,757.3L353,757.3z M255,77.4L255,77.4c12.3-12.3,30.6-6.1,42.9,6.1l67.4,110.3c6.1,12.3,6.1,30.6-12.2,42.9l0,0c-18.4,12.3-36.8,6.1-42.9-6.1l-67.4-116.4C236.6,101.9,242.8,83.5,255,77.4L255,77.4L255,77.4z M647,757.3L647,757.3c12.3-6.1,30.6-6.1,42.9,12.3l67.4,110.3c6.1,12.3,6.1,30.6-12.3,42.9l0,0c-12.3,6.1-30.6,6.1-42.9-12.3l-67.4-110.3C628.6,781.8,634.8,763.4,647,757.3L647,757.3L647,757.3z M77.4,255L77.4,255c6.1-12.3,24.5-18.4,42.9-12.3l110.3,67.4c12.3,6.1,18.4,24.5,12.3,36.8l0,0c-12.3,18.4-30.6,24.5-42.9,12.3L89.6,297.9C71.3,285.6,65.1,267.3,77.4,255L77.4,255L77.4,255z M757.3,647L757.3,647c6.1-12.3,24.5-18.4,42.9-12.3l110.3,67.4c12.3,6.1,18.4,24.5,12.3,42.9l0,0c-6.1,12.3-24.5,18.4-42.9,12.3l-110.3-67.4C757.3,683.8,751.1,665.4,757.3,647L757.3,647L757.3,647z"/></g>
</svg>